OpenSim_Sub08_CSStiffKnee_GRF.mot
version=1
nRows=69
nColumns=19
inDegrees=no
endheader
time	lFx	lFy	lFz	lCOPx	lCOPy	lCOPz	rFx	rFy	rFz	rCOPx	rCOPy	rCOPz	lMx	lMy	lMz	rMx	rMy	rMz
13.20000000	-13.62203790	501.48653742	33.91258601	0.77801860	0	-0.66192635	0.16074643	0.17908541	0.03901953	-0.00000438	0	0.00000218	0	-2.32706916	0	0	0.00000549	0.00000000
13.21000000	-13.56155834	503.94558052	33.35036661	0.77279187	0	-0.66248395	0.14046372	0.17345826	0.06097746	0.00000067	0	-0.00000053	0	-2.20800115	0	0	0.00000217	0.00000000
13.22000000	-12.97020269	506.67930658	32.93976010	0.76727999	0	-0.66298254	0.15307810	0.29271807	0.08239403	0.00000169	0	-0.00000100	0	-2.07680231	0	0	0.00000031	-0.00000000
13.23000000	-11.92866445	509.48580570	32.76577914	0.76153184	0	-0.66336071	0.16582237	0.44816159	0.12515168	0.00000119	0	-0.00000067	0	-1.98564760	0	0	-0.00000033	-0.00000000
13.24000000	-10.67486991	512.30718195	32.82803675	0.75568455	0	-0.66357996	0.16467613	0.63050588	0.14435868	0.00000051	0	-0.00000027	0	-1.96456814	0	0	-0.00000034	0.00000000
13.25000000	-9.29693647	515.19911059	32.90869511	0.74973560	0	-0.66363576	0.17927362	0.72067941	0.12078761	0.00000010	0	-0.00000005	0	-1.95563645	0	0	-0.00000019	0.00000000
13.26000000	-7.66230035	518.30565692	32.82477516	0.74368388	0	-0.66354050	0.20495965	0.73975667	0.08965993	-0.00000005	0	0.00000004	0	-1.90270370	0	0	-0.00000006	0.00000000
13.27000000	-5.67947101	521.41849677	32.50916073	0.73738093	0	-0.66335593	0.22445337	0.69574621	0.08082108	-0.00000007	0	0.00000004	0	-1.80709898	0	0	-0.00000000	-0.00000000
13.28000000	-3.41288884	524.02918377	32.01758755	0.73098686	0	-0.66320142	0.23056608	0.61690317	0.07615795	-0.00000004	0	0.00000002	0	-1.68331539	0	0	0.00000002	0.00000000
13.29000000	-1.10663521	525.55366381	31.49022111	0.72471948	0	-0.66312221	0.23625749	0.50757152	0.06267378	-0.00000002	0	0.00000001	0	-1.55247144	0	0	0.00000001	-0.00000000
13.30000000	1.09536366	525.71456247	31.10154988	0.71853681	0	-0.66309962	0.24028725	0.41881015	0.07948490	-0.00000000	0	0.00000000	0	-1.49701007	0	0	0.00000001	-0.00000000
13.31000000	3.11180707	524.90661439	30.93225172	0.71226377	0	-0.66310913	0.28020395	0.35871625	0.09598265	0.00000000	0	-0.00000000	0	-1.55971108	0	0	0.00000000	-0.00000000
13.32000000	4.96268688	523.83248902	30.91770417	0.70591870	0	-0.66310680	0.33747145	0.40116156	0.10658985	0.00000000	0	-0.00000000	0	-1.69789763	0	0	-0.00000000	-0.00000000
13.33000000	6.55712093	522.95203775	31.04150984	0.69975685	0	-0.66307136	0.35959202	0.56860247	0.14523515	0.00000000	0	-0.00000000	0	-1.86804729	0	0	-0.00000000	-0.00000000
13.34000000	7.84122622	521.97179861	31.28333623	0.69371302	0	-0.66292347	0.34065570	0.76247005	0.10857273	0.00000000	0	-0.00000000	0	-2.05016252	0	0	-0.00000000	-0.00000000
13.35000000	8.89865302	520.63647692	31.57504727	0.68766681	0	-0.66261128	0.28290464	0.84769234	0.04659058	-0.00000000	0	0.00000000	0	-2.23016863	0	0	-0.00000000	0.00000000
13.36000000	9.90514140	519.30534736	31.80371859	0.68180749	0	-0.66218508	0.23880459	0.84044639	-0.00257631	-0.00000000	0	0.00000000	0	-2.38891781	0	0	0.00000000	-0.00000000
13.37000000	10.92879972	518.75309045	31.79409468	0.67652924	0	-0.66171590	0.22458222	0.80253932	-0.02642984	-0.00000000	0	0.00000000	0	-2.46429107	0	0	0.00000000	-0.00000000
13.38000000	12.01121597	519.44845713	31.48023336	0.67175977	0	-0.66128735	0.21169496	0.74088346	0.04990683	-0.00000000	0	0.00000000	0	-2.42992749	0	0	0.00000000	-0.00000000
13.39000000	13.24710306	520.95944619	30.99377603	0.66690154	0	-0.66098806	0.20247636	0.69785757	0.08209755	0.00000000	0	-0.00000000	0	-2.30674451	0	0	0.00000000	0.00000000
13.40000000	14.63358345	522.40147816	30.69539874	0.66152538	0	-0.66084234	0.18654790	0.72900136	0.07438315	0.00000000	0	-0.00000000	0	-2.20333225	0	0	-0.00000000	0.00000000
13.41000000	16.06837297	523.24093652	30.82212980	0.65591991	0	-0.66083342	0.17930864	0.74763927	0.11542083	0.00000000	0	-0.00000000	0	-2.22199662	0	0	-0.00000000	0.00000000
13.42000000	17.43294425	523.45344777	31.29787817	0.65041230	0	-0.66090800	0.19554219	0.71681967	0.14188421	0.00000000	0	-0.00000000	0	-2.37105195	0	0	-0.00000000	-0.00000000
13.43000000	18.81086311	523.37842959	31.81344839	0.64497777	0	-0.66102972	0.23241827	0.65685301	0.19118291	0.00000000	0	-0.00000000	0	-2.57058358	0	0	-0.00000001	-0.00000000
13.44000000	20.30873538	523.49714650	32.13214907	0.63976677	0	-0.66117131	0.27716112	0.58064929	0.24149522	-0.00000002	0	0.00000001	0	-2.74672327	0	0	-0.00000000	-0.00000000
13.45000000	21.84380171	523.94478129	32.28420288	0.63498220	0	-0.66127316	0.29272860	0.48364229	0.23617655	-0.00000005	0	0.00000002	0	-2.90412323	0	0	0.00000001	-0.00000000
13.46000000	23.15974167	524.63141369	32.39338458	0.63068466	0	-0.66131592	0.28097800	0.48711616	0.21106705	-0.00000010	0	0.00000005	0	-3.04950461	0	0	0.00000004	-0.00000000
13.47000000	24.27227842	525.41915713	32.50557014	0.62667872	0	-0.66133006	0.27573215	0.61066815	0.16575919	-0.00000009	0	0.00000005	0	-3.18231543	0	0	0.00000009	-0.00000000
13.48000000	25.57308417	526.55787440	32.56530074	0.62264702	0	-0.66131299	0.29247575	0.65105021	0.14935462	0.00000008	0	-0.00000003	0	-3.25148745	0	0	0.00000012	0.00000000
13.49000000	27.44603768	528.66691026	32.48007093	0.61823110	0	-0.66121483	0.33416679	0.59247636	0.16721170	0.00000059	0	-0.00000028	0	-3.21322787	0	0	0.00000001	-0.00000000
13.50000000	29.90191906	532.11551137	32.20166034	0.61330122	0	-0.66101689	0.37369995	0.52698488	0.15689973	0.00000152	0	-0.00000072	0	-3.04261491	0	0	-0.00000042	0.00000000
13.51000000	32.59908718	536.24892098	31.86558525	0.60816274	0	-0.66075269	0.39445060	0.44850849	0.13482529	0.00000241	0	-0.00000114	0	-2.81068247	0	0	-0.00000133	-0.00000000
13.52000000	35.39560188	539.93540674	31.57387366	0.60298430	0	-0.66049020	0.38459544	0.44077969	0.12445022	0.00000161	0	-0.00000077	0	-2.55225483	0	0	-0.00000248	-0.00000000
13.53000000	38.32857088	542.48946232	31.36236910	0.59776977	0	-0.66025568	0.37267256	0.56734860	0.09435766	-0.00000423	0	0.00000196	0	-2.28061888	0	0	-0.00000256	-0.00000000
13.54000000	41.37821537	543.52408123	31.25672786	0.59250040	0	-0.66001489	0.34191819	0.69391616	0.11320300	-0.00001903	0	0.00000894	0	-2.01853459	0	0	0.00000160	0.00000000
13.55000000	44.41379018	542.90178803	31.23268664	0.58717719	0	-0.65975970	0.30034247	0.66983629	0.13505231	-0.00004218	0	0.00001990	0	-1.81645564	0	0	0.00001459	-0.00000000
13.56000000	47.44452365	540.58907876	31.14755104	0.58162027	0	-0.65946120	0.27346574	0.57798725	0.08042554	-0.00005687	0	0.00002698	0	-1.62341404	0	0	0.00003856	-0.00000000
13.57000000	50.52845528	536.46217400	30.94512310	0.57555577	0	-0.65903701	0.22934698	0.55708690	0.05386570	-0.00001400	0	0.00000707	0	-1.42644064	0	0	0.00006264	0.00000000
13.58000000	53.62205175	530.50424348	30.57905185	0.56916159	0	-0.65849750	0.18345829	0.55248744	0.08438663	0.00017280	0	-0.00008068	0	-1.22246397	0	0	0.00004539	-0.00000000
13.59000000	56.52459619	522.61185797	29.95167000	0.56288843	0	-0.65793354	0.15738856	0.51895544	0.08173540	0.00058166	0	-0.00027361	0	-1.01285405	0	0	-0.00009868	0.00000000
13.60000000	59.12577872	512.57641285	28.99363159	0.55693159	0	-0.65739392	0.18515002	0.44126999	0.08332819	0.00112398	0	-0.00053099	0	-0.79300922	0	0	-0.00047397	-0.00000000
13.61000000	61.48498939	500.05503030	27.62151309	0.55108760	0	-0.65684289	0.26425093	0.36697969	0.12293215	0.00123253	0	-0.00058675	0	-0.50043291	0	0	-0.00107563	0
13.62000000	63.56887062	484.80652433	25.90614512	0.54526582	0	-0.65625940	0.37916323	0.21171543	0.10129751	-0.00049186	0	0.00021869	0	-0.20469113	0	0	-0.00149297	-0.00000000
13.63000000	65.19426308	466.69967652	23.85777609	0.53955905	0	-0.65560764	0.46097395	-0.14147757	0.05349948	-0.00617813	0	0.00289382	0	0.08268382	0	0	-0.00048811	-0.00000000
13.64000000	66.08718800	445.55645226	21.47732366	0.53405766	0	-0.65484283	0.32901588	-0.72179775	-0.03805962	-0.01703297	0	0.00802254	0	0.37679797	0	0	0.00416809	0.00000000
13.65000000	66.13500016	420.95657650	18.81514662	0.52837608	0	-0.65389264	-0.30811583	-1.17188764	-0.20030946	-0.02867478	0	0.01356682	0	0.66575254	0	0	0.01460048	0.00000000
13.66000000	65.40485518	392.37505846	15.93203281	0.52191172	0	-0.65269953	-1.69176563	-0.33803769	-0.30677578	-0.02312522	0	0.01107855	0	0.91061839	0	0	0.02885596	-0.00000000
13.67000000	63.90801975	359.26267057	12.92226217	0.51486784	0	-0.65135980	-3.46188616	3.97074793	-0.05656764	0.03799448	0	-0.01755601	0	1.01971434	0	0	0.03290315	0
13.68000000	61.36399749	321.40627830	9.90249445	0.50836311	0	-0.65017026	-4.16765376	14.54894538	1.10502191	0.20390801	0	-0.09570999	0	0.95368794	0	0	-0.00877214	0.00000000
13.69000000	57.08673361	279.27039137	7.03430319	0.50366690	0	-0.64978868	-2.29571717	33.68283623	4.08356568	0.47970346	0	-0.22620737	0	0.66184558	0	0	-0.15150670	0
13.70000000	50.41596479	234.20745149	4.45959877	0.50205911	0	-0.65152100	1.06001692	60.32701584	9.38613014	0.74509773	0	-0.35175333	0	0.13114968	0	0	-0.39650001	0.00000000
13.71000000	41.32781403	188.67722765	2.42417398	0.50423372	0	-0.65672083	2.63853467	89.67070486	14.92820337	0.89589090	0	-0.42379926	0	-0.64593049	0	0	-0.65547922	0
13.72000000	30.63098947	145.86569684	1.14781941	0.50873936	0	-0.66441047	0.87256001	117.78963728	18.07750064	0.94627339	0	-0.44919904	0	-1.64427849	0	0	-0.83037732	0
13.73000000	19.67486459	108.41580392	0.49393662	0.50901459	0	-0.66623471	-3.25023422	144.93782703	18.86163921	0.94645696	0	-0.45046017	0	-2.65920215	0	0	-0.88018425	0
13.74000000	9.94273123	77.53137091	0.01619397	0.49031978	0	-0.64115179	-8.23907482	173.87622987	17.32840461	0.93299905	0	-0.44392359	0	-3.33332477	0	0	-0.84067517	-0.00000000
13.75000000	2.55094514	53.09756434	-0.63988660	0.42996057	0	-0.55747619	-13.18016920	206.54525223	12.69172159	0.92213892	0	-0.43687401	0	-3.32746976	0	0	-0.74570061	0
13.76000000	-2.08605995	34.31092970	-1.55610113	0.31278370	0	-0.39606303	-18.19966773	241.72748645	4.42457975	0.91715896	0	-0.43095369	0	-2.53134607	0	0	-0.65208347	0
13.77000000	-4.14711690	20.12802766	-2.65861450	0.16427699	0	-0.20087601	-24.52917503	277.13420159	-7.50603929	0.91622128	0	-0.42596657	0	-1.40089010	0	0	-0.64521144	0.00000000
13.78000000	-4.06989225	9.65772893	-3.91755155	0.05098117	0	-0.05863274	-33.12165336	312.23569909	-21.90721224	0.91691708	0	-0.42161133	0	-0.47338418	0	0	-0.81959700	0
13.79000000	-2.58278488	2.59003823	-5.14841690	-0.00219748	0	0.00567700	-42.40445288	345.14043867	-36.07960628	0.91766877	0	-0.41809246	0	-0.01242844	0	0	-1.15355729	0
13.80000000	-1.07370403	-0.89374904	-6.06975804	-0.01521750	0	0.02004227	-48.51607046	372.11415480	-46.73229072	0.91773592	0	-0.41558466	0	0.11481565	0	0	-1.53493442	-0.00000000
13.81000000	-0.29594719	-1.69318228	-6.34742270	-0.01169625	0	0.01467070	-51.53191474	392.76629278	-52.83493501	0.91625719	0	-0.41417248	0	0.09589798	0	0	-1.89921068	-0.00000000
13.82000000	-0.08432374	-1.40346362	-6.42976465	-0.00542203	0	0.00654909	-52.42771395	410.74297793	-53.74994370	0.91226273	0	-0.41379103	0	0.04708036	0	0	-2.16924397	0
13.83000000	-0.13494004	-0.99620969	-6.41798634	-0.00128934	0	0.00141410	-52.15838881	430.53393648	-50.71070965	0.90649634	0	-0.41411376	0	0.01268879	0	0	-2.32169323	0.00000000
13.84000000	-0.25628966	-0.79440260	-6.42597154	0.00038981	0	-0.00058640	-51.76126314	453.75097218	-46.80373779	0.90004799	0	-0.41468898	0	-0.00218021	0	0	-2.42007835	-0.00000000
13.85000000	-0.37314427	-0.74605161	-6.50708375	0.00065448	0	-0.00084597	-51.48224380	478.75524977	-45.12488457	0.89353574	0	-0.41510528	0	-0.00510505	0	0	-2.51580971	0
13.86000000	-0.46141286	-0.71616881	-6.53473413	0.00042516	0	-0.00052779	-50.99989766	501.98223880	-46.99241731	0.88720233	0	-0.41515563	0	-0.00354321	0	0	-2.55170433	0.00000000
13.87000000	-0.50961627	-0.68485093	-6.60124699	0.00017037	0	-0.00020266	-50.14963304	520.15442376	-51.89612659	0.88118126	0	-0.41482681	0	-0.00151196	0	0	-2.56313991	0
13.88000000	-0.53222962	-0.64088606	-6.64553579	0.00002531	0	-0.00002430	-48.79680146	531.74298914	-58.40213132	0.87532230	0	-0.41431221	0	-0.00028527	0	0	-2.63548698	0
